<?xml version="1.0" encoding="UTF-8"?>
<!DOCTYPE svg PUBLIC "-//W3C//DTD SVG 1.1//EN" "http://www.w3.org/Graphics/SVG/1.1/DTD/svg11.dtd">
<svg xmlns="http://www.w3.org/2000/svg" version="1.1" width="512px" height="512px" style="shape-rendering:geometricPrecision; text-rendering:geometricPrecision; image-rendering:optimizeQuality; fill-rule:evenodd; clip-rule:evenodd" xmlns:xlink="http://www.w3.org/1999/xlink">
<g><path style="opacity:0.998" fill="#e8e6fb" d="M 393.5,105.5 C 392.365,116.146 392.365,126.813 393.5,137.5C 393.667,238.834 393.5,340.167 393,441.5C 390.765,466.067 377.598,480.901 353.5,486C 253.5,486.667 153.5,486.667 53.5,486C 33.3053,482.138 20.472,470.305 15,450.5C 14.3333,320.167 14.3333,189.833 15,59.5C 20.846,38.3202 34.6793,26.4868 56.5,24C 156.859,23.016 257.193,23.3493 357.5,25C 379.606,31.1068 391.439,45.6068 393,68.5C 393.5,80.8288 393.667,93.1622 393.5,105.5 Z"/></g>
<g><path style="opacity:1" fill="#fdfdfe" d="M 245.5,37.5 C 276.618,37.2778 307.618,38.9445 338.5,42.5C 327.893,44.0915 317.226,45.2581 306.5,46C 279.833,46.6667 253.167,46.6667 226.5,46C 216.66,45.2395 206.994,43.9062 197.5,42C 213.592,39.8273 229.592,38.3273 245.5,37.5 Z"/></g>
<g><path style="opacity:1" fill="#58b2fd" d="M 65.5,61.5 C 106.835,61.3333 148.168,61.5 189.5,62C 196.237,63.7361 200.737,67.9028 203,74.5C 203.667,115.5 203.667,156.5 203,197.5C 201.167,204.667 196.667,209.167 189.5,211C 148.167,211.667 106.833,211.667 65.5,211C 58.7438,207.911 54.5771,202.745 53,195.5C 52.3333,155.833 52.3333,116.167 53,76.5C 55.211,69.7957 59.3777,64.7957 65.5,61.5 Z"/></g>
<g><path style="opacity:1" fill="#1e2a44" d="M 168.5,139.5 C 167.464,144.575 165.13,148.908 161.5,152.5C 158.673,143.033 157.007,133.367 156.5,123.5C 149.582,124.208 143.915,121.874 139.5,116.5C 127.349,128.828 115.516,128.494 104,115.5C 98.909,118.999 95.2423,123.666 93,129.5C 90.9927,136.843 88.9927,144.176 87,151.5C 85.434,146.944 83.6007,142.61 81.5,138.5C 78.7848,126.994 77.9515,115.327 79,103.5C 82.6328,92.4326 90.1328,88.2659 101.5,91C 106.23,85.2995 112.23,81.6329 119.5,80C 129.791,78.8281 140.124,78.1615 150.5,78C 157.5,74.6667 164.5,74.6667 171.5,78C 175.905,84.5814 174.571,89.9147 167.5,94C 179.906,94.0618 184.073,99.8951 180,111.5C 177.297,113.902 174.13,115.235 170.5,115.5C 170.594,123.613 169.928,131.613 168.5,139.5 Z"/></g>
<g><path style="opacity:0.995" fill="#f34b58" d="M 454.5,133.5 C 456.376,154.411 459.043,175.077 462.5,195.5C 465.17,221.366 468.17,247.2 471.5,273C 471.242,275.009 470.575,276.843 469.5,278.5C 451.336,280.644 433.336,282.977 415.5,285.5C 413.292,284.977 411.792,283.644 411,281.5C 405.408,233.323 399.574,185.323 393.5,137.5C 392.365,126.813 392.365,116.146 393.5,105.5C 405.186,86.238 420.853,82.0713 440.5,93C 446.222,97.6167 450.056,103.45 452,110.5C 453.163,118.137 453.997,125.804 454.5,133.5 Z"/></g>
<g><path style="opacity:1" fill="#cccff2" d="M 235.5,99.5 C 257.503,99.3334 279.503,99.5 301.5,100C 306.414,103.171 306.747,106.837 302.5,111C 279.833,111.667 257.167,111.667 234.5,111C 230.446,106.773 230.78,102.939 235.5,99.5 Z"/></g>
<g><path style="opacity:1" fill="#cccff2" d="M 325.5,99.5 C 335.839,99.3335 346.172,99.5002 356.5,100C 361.815,103.717 361.815,107.383 356.5,111C 345.833,111.667 335.167,111.667 324.5,111C 320.344,106.787 320.677,102.954 325.5,99.5 Z"/></g>
<g><path style="opacity:1" fill="#f6baa9" d="M 168.5,139.5 C 173.727,145.521 173.727,151.688 168.5,158C 165.978,159.341 163.311,160.174 160.5,160.5C 158.372,183.628 145.706,195.961 122.5,197.5C 106.064,196.231 94.8977,187.898 89,172.5C 87.8436,168.582 87.3436,164.582 87.5,160.5C 78.4623,158.956 74.629,153.623 76,144.5C 77.331,142.004 79.1644,140.004 81.5,138.5C 83.6007,142.61 85.434,146.944 87,151.5C 88.9927,144.176 90.9927,136.843 93,129.5C 95.2423,123.666 98.909,118.999 104,115.5C 115.516,128.494 127.349,128.828 139.5,116.5C 143.915,121.874 149.582,124.208 156.5,123.5C 157.007,133.367 158.673,143.033 161.5,152.5C 165.13,148.908 167.464,144.575 168.5,139.5 Z"/></g>
<g><path style="opacity:0.971" fill="#56b3fe" d="M 473.5,194.5 C 471.882,173.22 469.215,152.22 465.5,131.5C 465.334,127.486 465.501,123.486 466,119.5C 477.611,115.661 483.611,119.994 484,132.5C 487.918,165.51 491.918,198.51 496,231.5C 496.667,236.5 496.667,241.5 496,246.5C 492.543,253.416 487.543,255.083 481,251.5C 478.091,232.563 475.591,213.563 473.5,194.5 Z"/></g>
<g><path style="opacity:0.984" fill="#4c7bfc" d="M 465.5,131.5 C 469.215,152.22 471.882,173.22 473.5,194.5C 469.802,194.552 466.135,194.886 462.5,195.5C 459.043,175.077 456.376,154.411 454.5,133.5C 458.206,132.913 461.873,132.246 465.5,131.5 Z"/></g>
<g><path style="opacity:1" fill="#cccff2" d="M 234.5,134.5 C 275.835,134.333 317.168,134.5 358.5,135C 362.619,139.073 362.285,142.74 357.5,146C 316.833,146.667 276.167,146.667 235.5,146C 230.649,142.573 230.316,138.74 234.5,134.5 Z"/></g>
<g><path style="opacity:1" fill="#38394f" d="M 97.5,138.5 C 103.537,138.171 109.537,138.504 115.5,139.5C 115.291,140.086 114.957,140.586 114.5,141C 109.167,141.667 103.833,141.667 98.5,141C 97.7476,140.329 97.4142,139.496 97.5,138.5 Z"/></g>
<g><path style="opacity:1" fill="#1d2943" d="M 132.5,138.5 C 138.206,138.171 143.872,138.505 149.5,139.5C 146.667,139.833 143.833,140.167 141,140.5C 137.748,140.481 134.915,139.814 132.5,138.5 Z"/></g>
<g><path style="opacity:1" fill="#fff3f3" d="M 444.5,141.5 C 453.445,174.433 457.611,208.1 457,242.5C 449.409,209.263 445.243,175.596 444.5,141.5 Z"/></g>
<g><path style="opacity:1" fill="#262e46" d="M 105.5,145.5 C 110.328,145.385 111.661,147.552 109.5,152C 103.339,152.878 102.006,150.711 105.5,145.5 Z"/></g>
<g><path style="opacity:1" fill="#2c3149" d="M 138.5,145.5 C 144.704,145.314 146.037,147.814 142.5,153C 140.633,153.711 139.133,153.211 138,151.5C 137.51,149.455 137.677,147.455 138.5,145.5 Z"/></g>
<g><path style="opacity:1" fill="#cccff2" d="M 235.5,172.5 C 245.506,172.334 255.506,172.5 265.5,173C 270.414,176.171 270.747,179.837 266.5,184C 255.833,184.667 245.167,184.667 234.5,184C 230.307,179.683 230.64,175.85 235.5,172.5 Z"/></g>
<g><path style="opacity:1" fill="#cccff2" d="M 289.5,172.5 C 311.836,172.333 334.169,172.5 356.5,173C 361.815,176.717 361.815,180.383 356.5,184C 333.833,184.667 311.167,184.667 288.5,184C 286.643,182.818 285.643,181.151 285.5,179C 286.205,176.458 287.539,174.292 289.5,172.5 Z"/></g>
<g><path style="opacity:1" fill="#fefdfd" d="M 111.5,174.5 C 119.5,174.5 127.5,174.5 135.5,174.5C 134.188,180.844 130.188,183.844 123.5,183.5C 117.175,183.499 113.175,180.499 111.5,174.5 Z"/></g>
<g><path style="opacity:1" fill="#cccff2" d="M 205.5,245.5 C 209.013,244.876 211.847,245.876 214,248.5C 214.667,312.5 214.667,376.5 214,440.5C 211.503,442.478 208.669,442.978 205.5,442C 204.299,441.097 203.465,439.931 203,438.5C 202.333,375.167 202.333,311.833 203,248.5C 204.045,247.627 204.878,246.627 205.5,245.5 Z"/></g>
<g><path style="opacity:1" fill="#cccdf0" d="M 246.5,260.5 C 264.997,259.833 283.664,259.5 302.5,259.5C 321.921,259.345 341.254,259.845 360.5,261C 361.333,261.833 362.167,262.667 363,263.5C 363.667,272.833 363.667,282.167 363,291.5C 361.891,293.815 360.057,295.315 357.5,296C 334.169,296.5 310.836,296.667 287.5,296.5C 297.694,291.783 301.86,283.783 300,272.5C 298.141,266.64 294.307,262.807 288.5,261C 274.504,260.5 260.504,260.333 246.5,260.5 Z"/></g>
<g><path style="opacity:1" fill="#f34c59" d="M 246.5,260.5 C 260.504,260.333 274.504,260.5 288.5,261C 294.307,262.807 298.141,266.64 300,272.5C 301.86,283.783 297.694,291.783 287.5,296.5C 272.736,296.967 258.07,296.467 243.5,295C 242.299,294.097 241.465,292.931 241,291.5C 240.333,282.833 240.333,274.167 241,265.5C 242.076,262.921 243.909,261.254 246.5,260.5 Z"/></g>
<g><path style="opacity:1" fill="#ffe3e4" d="M 251.5,266.5 C 262.187,266.168 272.854,266.501 283.5,267.5C 282.271,268.281 280.938,268.781 279.5,269C 269.772,269.891 260.106,269.557 250.5,268C 251.056,267.617 251.389,267.117 251.5,266.5 Z"/></g>
<g><path style="opacity:1" fill="#cccff2" d="M 57.5,268.5 C 67.8387,268.334 78.172,268.5 88.5,269C 89.4162,269.374 90.2496,269.874 91,270.5C 92.1825,274.274 91.3492,277.441 88.5,280C 78.1667,280.667 67.8333,280.667 57.5,280C 53.5419,276.092 53.5419,272.259 57.5,268.5 Z"/></g>
<g><path style="opacity:1" fill="#cccff2" d="M 108.5,268.5 C 130.503,268.333 152.503,268.5 174.5,269C 178.737,273.061 178.403,276.728 173.5,280C 152.167,280.667 130.833,280.667 109.5,280C 104.624,276.479 104.29,272.646 108.5,268.5 Z"/></g>
<g><path style="opacity:0.987" fill="#fecf6b" d="M 469.5,278.5 C 473.597,317.537 478.097,356.537 483,395.5C 483.824,404.676 483.657,413.676 482.5,422.5C 482.799,420.396 482.466,418.396 481.5,416.5C 465.501,418.5 449.501,420.5 433.5,422.5C 431.767,417.674 430.6,412.674 430,407.5C 425.001,366.845 420.168,326.178 415.5,285.5C 433.336,282.977 451.336,280.644 469.5,278.5 Z"/></g>
<g><path style="opacity:1" fill="#cccff2" d="M 56.5,301.5 C 95.8347,301.333 135.168,301.5 174.5,302C 178.5,305.667 178.5,309.333 174.5,313C 135.167,313.667 95.8333,313.667 56.5,313C 54.0904,312.242 53.0904,310.575 53.5,308C 53.3199,305.198 54.3199,303.031 56.5,301.5 Z"/></g>
<g><path style="opacity:1" fill="#cccff1" d="M 325.5,328.5 C 336.659,327.341 347.992,327.174 359.5,328C 360.667,329.167 361.833,330.333 363,331.5C 363.667,340.833 363.667,350.167 363,359.5C 361.833,360.667 360.667,361.833 359.5,363C 348.659,363.825 337.992,363.659 327.5,362.5C 338.07,355.256 340.237,345.922 334,334.5C 331.751,331.629 328.918,329.629 325.5,328.5 Z"/></g>
<g><path style="opacity:1" fill="#fed06d" d="M 325.5,328.5 C 328.918,329.629 331.751,331.629 334,334.5C 340.237,345.922 338.07,355.256 327.5,362.5C 326.527,362.987 325.527,363.487 324.5,364C 298.5,364.667 272.5,364.667 246.5,364C 244.333,363.167 242.833,361.667 242,359.5C 241.333,350.5 241.333,341.5 242,332.5C 243.227,330.274 245.061,328.774 247.5,328C 273.53,327.194 299.53,327.361 325.5,328.5 Z"/></g>
<g><path style="opacity:1" fill="#fffbf3" d="M 258.5,333.5 C 273.203,333.149 287.87,333.649 302.5,335C 286.856,338.332 271.189,338.332 255.5,335C 256.737,334.768 257.737,334.268 258.5,333.5 Z"/></g>
<g><path style="opacity:1" fill="#cccff2" d="M 57.5,338.5 C 71.504,338.333 85.504,338.5 99.5,339C 103.747,343.163 103.414,346.829 98.5,350C 84.8333,350.667 71.1667,350.667 57.5,350C 53.5419,346.092 53.5419,342.259 57.5,338.5 Z"/></g>
<g><path style="opacity:1" fill="#cccff2" d="M 120.5,338.5 C 138.17,338.333 155.836,338.5 173.5,339C 178.796,342.567 178.796,346.234 173.5,350C 155.833,350.667 138.167,350.667 120.5,350C 116.508,346.001 116.508,342.168 120.5,338.5 Z"/></g>
<g><path style="opacity:1" fill="#cccff2" d="M 56.5,371.5 C 95.8347,371.333 135.168,371.5 174.5,372C 178.5,375.667 178.5,379.333 174.5,383C 135.167,383.667 95.8333,383.667 56.5,383C 54.0904,382.242 53.0904,380.575 53.5,378C 53.3199,375.198 54.3199,373.031 56.5,371.5 Z"/></g>
<g><path style="opacity:1" fill="#58b3fd" d="M 298.5,391.5 C 312.956,397.447 316.456,407.447 309,421.5C 306.21,424.465 303.043,426.798 299.5,428.5C 281.497,428.667 263.497,428.5 245.5,428C 243.333,427.167 241.833,425.667 241,423.5C 240.333,414.5 240.333,405.5 241,396.5C 242.543,394.622 244.376,393.122 246.5,392C 263.83,391.5 281.163,391.333 298.5,391.5 Z"/></g>
<g><path style="opacity:1" fill="#cbcff2" d="M 298.5,391.5 C 318.503,391.333 338.503,391.5 358.5,392C 360.286,392.785 361.786,393.951 363,395.5C 363.667,405.167 363.667,414.833 363,424.5C 361.786,426.049 360.286,427.215 358.5,428C 338.836,428.5 319.169,428.667 299.5,428.5C 303.043,426.798 306.21,424.465 309,421.5C 316.456,407.447 312.956,397.447 298.5,391.5 Z"/></g>
<g><path style="opacity:1" fill="#47419d" d="M 58.5,406.5 C 79.5026,406.333 100.503,406.5 121.5,407C 125.501,409.107 126.501,412.273 124.5,416.5C 123.975,417.192 123.308,417.692 122.5,418C 100.833,418.667 79.1667,418.667 57.5,418C 53.4463,413.773 53.7796,409.939 58.5,406.5 Z"/></g>
<g><path style="opacity:1" fill="#47429e" d="M 143.5,406.5 C 153.172,406.334 162.839,406.5 172.5,407C 178.201,409.832 178.867,413.498 174.5,418C 163.833,418.667 153.167,418.667 142.5,418C 138.36,413.741 138.693,409.908 143.5,406.5 Z"/></g>
<g><path style="opacity:0.999" fill="#fdbc22" d="M 482.5,422.5 C 479.595,438.455 475.595,454.122 470.5,469.5C 466.5,469.833 462.5,470.167 458.5,470.5C 448.61,455.389 440.277,439.389 433.5,422.5C 449.501,420.5 465.501,418.5 481.5,416.5C 482.466,418.396 482.799,420.396 482.5,422.5 Z"/></g>
<g><path style="opacity:1" fill="#fdfdfe" d="M 29.5,437.5 C 41.9147,453.224 57.248,465.391 75.5,474C 57.3781,473.853 43.5448,466.02 34,450.5C 31.9208,446.347 30.4208,442.014 29.5,437.5 Z"/></g>
<g><path style="opacity:0.935" fill="#1e2943" d="M 470.5,469.5 C 471.52,473.799 472.02,478.132 472,482.5C 471.06,485.442 469.06,486.775 466,486.5C 463.739,486.561 461.739,485.894 460,484.5C 458.775,479.915 458.275,475.248 458.5,470.5C 462.5,470.167 466.5,469.833 470.5,469.5 Z"/></g>
</svg>
